PathFileType	4	(X/Y/Z)	C:\Users\chris\Documents\GitHub\baseballds\vids\pitch5_Sports2D\pitch5_Sports2D_m_person01.trc
DataRate	CameraRate	NumFrames	NumMarkers	Units	OrigDataRate	OrigDataStartFrame	OrigNumFrames
30	30	11	22	m	30	0	149
Frame#	Time	Hip			RHip			RKnee			RAnkle			RBigToe			RSmallToe			RHeel			LHip			LKnee			LAnkle			LBigToe			LSmallToe			LHeel			Neck			Head			Nose			RShoulder			RElbow			RWrist			LShoulder			LElbow			LWrist		
		X1	Y1	Z1	X2	Y2	Z2	X3	Y3	Z3	X4	Y4	Z4	X5	Y5	Z5	X6	Y6	Z6	X7	Y7	Z7	X8	Y8	Z8	X9	Y9	Z9	X10	Y10	Z10	X11	Y11	Z11	X12	Y12	Z12	X13	Y13	Z13	X14	Y14	Z14	X15	Y15	Z15	X16	Y16	Z16	X17	Y17	Z17	X18	Y18	Z18	X19	Y19	Z19	X20	Y20	Z20	X21	Y21	Z21	X22	Y22	Z22
0	0.0	0.8091619155154576	1.033989194653479	0.0	0.7564848866137068	1.017688859375955	0.0	0.7430523753096815	0.802013816652914	0.0	0.7375349894985733	0.6089964398900544	0.0	0.7835360561350243	0.5395678752345953	0.0	0.7398707758850918	0.5302106864351616	0.0	0.7271279512933813	0.5766921493046836	0.0	0.8604443310203329	1.024929314551998	0.0	0.8873079220077954	0.8215353194368683	0.0	0.8998148629904096	0.6424044828278095	0.0	1.0131467880115061	0.6060871479752846	0.0	1.003037780784837	0.6148567070073783	0.0	0.8835460632133728	0.6033764069343917	0.0	0.778944775040485	1.3760988282661275	0.0	0.8300239296387792	1.5059735669172063	0.0	0.8706011536439402	1.4235359314123253	0.0	0.6809881708766764	1.3282230060200655	0.0	0.644484752008251	1.170942387555663	0.0	0.6908457772376109	1.0510125494470506	0.0	0.8391607305351543	1.3297660721512727	0.0	0.8513075323569264	1.2011369117362818	0.0	0.8194279941096453	1.113652532709806	0.0
1	0.03333333333333333	0.8095462230460739	1.0315531874279726	0.0	0.7583084774292749	1.0141942887375852	0.0	0.7431996675596523	0.799844536435787	0.0	0.7388554245592444	0.6052934457197306	0.0	0.7844847012560708	0.5410560784930974	0.0	0.744752072891049	0.5343776665421011	0.0	0.7258249714151487	0.5731237429456963	0.0	0.8628091568408067	1.0224906315253168	0.0	0.8850590678177793	0.8186657787303914	0.0	0.9011746406936323	0.6443628778826579	0.0	1.008188411046679	0.6069631362741702	0.0	0.9986128952946467	0.6162266287380845	0.0	0.8848148315347311	0.6039427422476455	0.0	0.7797452514100288	1.3746454086065594	0.0	0.8260043520184206	1.502813237973406	0.0	0.8690603211071526	1.423310856548544	0.0	0.6814148342840024	1.3261743303442495	0.0	0.646538714708185	1.167103671707989	0.0	0.6907229507506256	1.049591898912565	0.0	0.8394893904567782	1.3302812099306418	0.0	0.8463740254958831	1.194973792578888	0.0	0.7841888287874611	1.0970463550625018	0.0
2	0.06666666666666667	0.8097698000859708	1.0291386646950598	0.0	0.7588311739130631	1.0112438291779187	0.0	0.743446666253437	0.7970023365016754	0.0	0.7392954688160277	0.6026874784431048	0.0	0.7852139107348013	0.5403723974900876	0.0	0.747052257314836	0.5346915467734153	0.0	0.7246087598679994	0.5701670757426518	0.0	0.8632471013321552	1.0191418281605185	0.0	0.8842349819347524	0.815853001205453	0.0	0.9014501766097963	0.6436527745740885	0.0	1.0056196870617573	0.6066508766351176	0.0	0.9971115511408394	0.6156353743711024	0.0	0.8844350792847007	0.6021159094110606	0.0	0.7798301749594427	1.3731136642688768	0.0	0.824522088783491	1.4998835664309838	0.0	0.8688536719372957	1.4208397484330915	0.0	0.6823088735179014	1.3243146630308844	0.0	0.6478365249866048	1.1652046302743704	0.0	0.6902918231548592	1.0488670028480342	0.0	0.8395532190160164	1.329377021505569	0.0	0.8452406901747859	1.1909122431912436	0.0	0.7677027223401443	1.0887223395559296	0.0
3	0.1	0.8101463634652744	1.0281904477184844	0.0	0.7589329488995996	1.0125929206894926	0.0	0.7438317487349877	0.7956485807038868	0.0	0.7387950285905506	0.6004287301673126	0.0	0.7856927033110651	0.538116184166425	0.0	0.7471304059790173	0.5318654080341209	0.0	0.7239995453307332	0.5678411704776116	0.0	0.8617813774510318	1.0193025875478152	0.0	0.8845827780549156	0.815236288815666	0.0	0.900951723369265	0.6412197875539823	0.0	1.0053928109213552	0.6048529489287942	0.0	0.9981200916049918	0.613607624589481	0.0	0.8833139207866112	0.5994075421650233	0.0	0.7793309530980396	1.3706007592615563	0.0	0.8270647743795154	1.4987065366971102	0.0	0.8689142335705607	1.4175872407519603	0.0	0.682974715908254	1.323144887118652	0.0	0.6477169036144438	1.1647540783924994	0.0	0.6893954265089204	1.0487707247843117	0.0	0.8390229711163851	1.327579951813332	0.0	0.8458163623937839	1.1900457429885207	0.0	0.7679671337077709	1.088967431178859	0.0
4	0.13333333333333333	0.8108338957645325	1.028287304612185	0.0	0.759888476648276	1.0163579735787256	0.0	0.7443084663857414	0.7960438562834904	0.0	0.7381235030244178	0.5976157587747403	0.0	0.7856190051184351	0.5355644956624903	0.0	0.7471475505609633	0.5287888203998523	0.0	0.724293859896137	0.5658309155884914	0.0	0.8606709357954012	1.0228102441807359	0.0	0.8850533814158366	0.81599794070141	0.0	0.9007578115921353	0.6392256655122984	0.0	1.005634155548433	0.6023925359711133	0.0	0.9987563229321098	0.6118357791164177	0.0	0.8832864757678535	0.5978807345828886	0.0	0.7788896017194946	1.367255619266876	0.0	0.8304900430874833	1.4984521202888577	0.0	0.8684649705216052	1.4155837298365164	0.0	0.6827328853970158	1.3221268022704817	0.0	0.6467426326968817	1.1635955171381542	0.0	0.6887789038702132	1.0477282827696655	0.0	0.8383778694161986	1.3256808230688168	0.0	0.8442332564847018	1.1905364269901448	0.0	0.7712296181903299	1.0904954127510076	0.0
5	0.16666666666666666	0.8112697751343682	1.0270474915932277	0.0	0.7609919343606109	1.016039408040945	0.0	0.7446031188728595	0.7956672494909383	0.0	0.7377926950938292	0.5950348595985558	0.0	0.7847482990577482	0.5331975667956772	0.0	0.747647059766122	0.5268356079189627	0.0	0.7249050847922162	0.5642728190581543	0.0	0.8614988588508341	1.023497421356244	0.0	0.8850727683045241	0.8148255965575302	0.0	0.901052211904714	0.6378663774887142	0.0	1.0051447761793364	0.6003493588296038	0.0	0.9975550371373667	0.6106512278822898	0.0	0.8842501123297357	0.5969931866768419	0.0	0.7789035767151575	1.3644095083837162	0.0	0.8309858869143268	1.496783167868557	0.0	0.8682588338207282	1.414170762397151	0.0	0.6819699850493799	1.320305883962755	0.0	0.6464964321939913	1.1607647888357244	0.0	0.6891366563408591	1.0448615715185134	0.0	0.8387468940968028	1.3236380378946846	0.0	0.8420992078671233	1.1896163619382227	0.0	0.7710702132397844	1.0881423739216645	0.0
6	0.2	0.8109340850811704	1.024619175678013	0.0	0.7607396180013056	1.0122123246182595	0.0	0.7444896908746426	0.7939712774917288	0.0	0.7374122839096318	0.5940082970227412	0.0	0.7836388408339608	0.5316495801472197	0.0	0.7470298366197565	0.5257114648556908	0.0	0.7249279663585623	0.5636108304523656	0.0	0.8629267762738972	1.02069554315491	0.0	0.8847022252960016	0.812269601177659	0.0	0.9010373822582695	0.6364234024122116	0.0	1.0042508081107953	0.5988678872660108	0.0	0.996034352098262	0.6089929364759695	0.0	0.8846778314851048	0.595989862073968	0.0	0.7793422847207412	1.362390220814416	0.0	0.8300406284461778	1.4942614975387962	0.0	0.8683679692686029	1.4120283623275822	0.0	0.681621715968864	1.3181597621068775	0.0	0.6472014623412498	1.1576114639853325	0.0	0.6897456507643617	1.0417063340288277	0.0	0.8401153018646695	1.32169431024158	0.0	0.8447337054194102	1.1874246030085602	0.0	0.7714161403166008	1.0848680295727833	0.0
7	0.23333333333333334	0.8101396317176509	1.023292430270122	0.0	0.7594431252530817	1.0102066911685799	0.0	0.7441562135815809	0.7923287042157421	0.0	0.7366915053202919	0.594213653185499	0.0	0.7829132597112413	0.5312739543596712	0.0	0.7447380449848653	0.5249120714500852	0.0	0.724289259440681	0.5634968757200924	0.0	0.8632017802645007	1.0187856602988346	0.0	0.8845139615484623	0.8113957630185528	0.0	0.9005595642717175	0.6352667849755926	0.0	1.003457009129307	0.597162227346171	0.0	0.995700610686813	0.6064722294514889	0.0	0.8842967460834696	0.5956073602288191	0.0	0.7796929059060731	1.3605278377934866	0.0	0.8308995012110022	1.4926537064834415	0.0	0.8679539605850841	1.4088874179839739	0.0	0.6819476727271853	1.3165562650658957	0.0	0.6474163133762847	1.1556777600407444	0.0	0.6898807992931262	1.039542600742982	0.0	0.8410785897583719	1.320236651979522	0.0	0.852408526736693	1.186170028335039	0.0	0.7766569938511373	1.0852365429875295	0.0
8	0.26666666666666666	0.8097281889159129	1.023264872309878	0.0	0.7588399011290385	1.0104059235951295	0.0	0.7440552470426305	0.7915219897871929	0.0	0.7363913324034614	0.5934931229857466	0.0	0.7824608731851516	0.5307717727292269	0.0	0.7427670867538574	0.5239805118599489	0.0	0.7239948627691428	0.562491722031893	0.0	0.8628919579897517	1.0185784127854105	0.0	0.8849038965689373	0.8123013966932607	0.0	0.9003653482957371	0.6349285636460088	0.0	1.003293083517871	0.5948665828000889	0.0	0.9960028077051916	0.6041639101084361	0.0	0.8843070586805	0.5957691693720946	0.0	0.7794737813020685	1.358748618183539	0.0	0.8333274125287665	1.491750513448957	0.0	0.8670419003537647	1.405274115119158	0.0	0.6821001542273593	1.3151951333342855	0.0	0.6466783034637412	1.1547655573559292	0.0	0.6900602786102118	1.037411297559239	0.0	0.8409156812165949	1.3190577056297994	0.0	0.8576359633835858	1.1867344060786074	0.0	0.7837427119297468	1.0879465656709375	0.0
9	0.3	0.810083453833558	1.0228348203886608	0.0	0.7594633365659327	1.0098635247706498	0.0	0.7444907500555211	0.7916041050130872	0.0	0.7370622847910379	0.5907231161994845	0.0	0.7820163560229376	0.528454995444924	0.0	0.7427879801506654	0.5222674070644758	0.0	0.7246135413035589	0.5596997133840433	0.0	0.8632381607744094	1.018168562231254	0.0	0.8853139655287937	0.8127398485760868	0.0	0.9005357051277016	0.6344749818297777	0.0	1.0042729867982154	0.5925340204375229	0.0	0.9961709749054961	0.6027403224205385	0.0	0.8850432236729477	0.5946167814985056	0.0	0.7791523982723901	1.357460206491812	0.0	0.8350331180952676	1.4905374464061212	0.0	0.8664596462501201	1.4025821439159218	0.0	0.6816424008263269	1.3135257798071591	0.0	0.6461415438597574	1.1537184137637715	0.0	0.6904208072449517	1.0341767945199298	0.0	0.840405198872158	1.3179333316913697	0.0	0.8552950399586124	1.187727347767731	0.0	0.7864135469900425	1.0887514504952507	0.0
10	0.3333333333333333	0.8106532094806373	1.0211975270468	0.0	0.7603227918090988	1.0078246088086933	0.0	0.7451682587133251	0.7914754025245926	0.0	0.7377553063685589	0.5876162366063576	0.0	0.7820168531041846	0.5249055761036251	0.0	0.744291173214198	0.5197206989751701	0.0	0.7251413135844332	0.5561941537367934	0.0	0.863972702427799	1.0168024827726885	0.0	0.8850359393951879	0.811469568381353	0.0	0.9005525200601407	0.6327169047295818	0.0	1.0056337115443292	0.5904710404429339	0.0	0.9965278599169392	0.6011857526678276	0.0	0.8855939865197676	0.5912760300374916	0.0	0.7793587783321894	1.3564441058900425	0.0	0.8352562746341826	1.4887424141850911	0.0	0.8664122651411997	1.4016100400281166	0.0	0.6814983084085209	1.311571377673374	0.0	0.6463830206328571	1.1519870942977435	0.0	0.6902322026298571	1.0305366480285119	0.0	0.8402343358390668	1.3168508847634295	0.0	0.8505910568050427	1.1873941419526568	0.0	0.7847218515419832	1.086897460105675	0.0
